# xmcd CD database file
#
# Track frame offsets:
#	150
#	33785
#	59567
#	81407
#	106577
#	140140
#	166492
#	200742
#	232570
#	257260
#
# Disc length: 3691 seconds
#
# Revision: 0
# Processed by: cddbd v1.5.2PL0 Copyright (c) Steve Scherf et al.
# Submitted via: CDex 1.79
#
DISCID=7d0e690a
DTITLE=Nature's Harmony - Sax By The Sea
DYEAR=1995
DGENRE=New Age
TTITLE0=The Long Walk
TTITLE1=Deep Blue 
TTITLE2=Moonlight On The Water 
TTITLE3=Sand And Sea 
TTITLE4=A Distant Call 
TTITLE5=Tropical Dreams 
TTITLE6=Rhythm Of The Waves 
TTITLE7=Skipping Stones 
TTITLE8=Serenity 
TTITLE9=Sand Castles 
EXTD=YEAR: 1995
EXTT0=
EXTT1=
EXTT2=
EXTT3=
EXTT4=
EXTT5=
EXTT6=
EXTT7=
EXTT8=
EXTT9=
PLAYORDER=
